<?xml version="1.0" encoding="utf-8" standalone="no"?>
<!DOCTYPE svg PUBLIC "-//W3C//DTD SVG 1.1//EN"
  "http://www.w3.org/Graphics/SVG/1.1/DTD/svg11.dtd">
<svg xmlns:xlink="http://www.w3.org/1999/xlink" width="754.31952pt" height="286.319512pt" viewBox="0 0 754.31952 286.319512" xmlns="http://www.w3.org/2000/svg" version="1.1">
 <metadata>
  <rdf:RDF xmlns:dc="http://purl.org/dc/elements/1.1/" xmlns:cc="http://creativecommons.org/ns#" xmlns:rdf="http://www.w3.org/1999/02/22-rdf-syntax-ns#">
   <cc:Work>
    <dc:type rdf:resource="http://purl.org/dc/dcmitype/StillImage"/>
    <dc:date>2026-09-26T18:15:57.178059</dc:date>
    <dc:format>image/svg+xml</dc:format>
    <dc:creator>
     <cc:Agent>
      <dc:title>Matplotlib v3.9.4, https://matplotlib.org/</dc:title>
     </cc:Agent>
    </dc:creator>
   </cc:Work>
  </rdf:RDF>
 </metadata>
 <defs>
  <style type="text/css">*{stroke-linejoin: round; stroke-linecap: butt}</style>
 </defs>
 <g id="figure_1">
  <g id="patch_1">
   <path d="M 0 286.319512
L 754.31952 286.319512
L 754.31952 0
L 0 0
z
" style="fill: #ffffff"/>
  </g>
  <g id="axes_1">
   <g id="patch_2">
    <path d="M 52.930875 250.064637
L 367.81676 250.064637
L 367.81676 7.75874
L 52.930875 7.75874
z
" style="fill: #ffffff"/>
   </g>
   <g id="matplotlib.axis_1">
    <g id="xtick_1">
     <g id="line2d_1">
      <defs>
       <path id="m4f351382f9" d="M 0 0
L 0 4.8
" style="stroke: #262626"/>
      </defs>
      <g>
       <use xlink:href="#m4f351382f9" x="67.24387" y="250.064637" style="fill: #262626; stroke: #262626"/>
      </g>
     </g>
     <g id="text_1">
      <text style="fill: #262626; font: 8.8px 'DejaVu Sans'; text-anchor: middle" x="67.24387" y="265.051262" transform="rotate(-0 67.24387 265.051262)">10</text>
     </g>
    </g>
    <g id="xtick_2">
     <g id="line2d_2">
      <g>
       <use xlink:href="#m4f351382f9" x="210.373818" y="250.064637" style="fill: #262626; stroke: #262626"/>
      </g>
     </g>
     <g id="text_2">
      <text style="fill: #262626; font: 8.8px 'DejaVu Sans'; text-anchor: middle" x="210.373818" y="265.051262" transform="rotate(-0 210.373818 265.051262)">20</text>
     </g>
    </g>
    <g id="xtick_3">
     <g id="line2d_3">
      <g>
       <use xlink:href="#m4f351382f9" x="353.503765" y="250.064637" style="fill: #262626; stroke: #262626"/>
      </g>
     </g>
     <g id="text_3">
      <text style="fill: #262626; font: 8.8px 'DejaVu Sans'; text-anchor: middle" x="353.503765" y="265.051262" transform="rotate(-0 353.503765 265.051262)">30</text>
     </g>
    </g>
    <g id="text_4">
     <text style="fill: #262626; font: 10px 'DejaVu Sans'; text-anchor: middle" x="210.373818" y="278.479824" transform="rotate(-0 210.373818 278.479824)">Nominal budget (%)</text>
    </g>
   </g>
   <g id="matplotlib.axis_2">
    <g id="ytick_1">
     <g id="line2d_4">
      <path d="M 52.930875 221.956937
L 367.81676 221.956937
" clip-path="url(#p79a7aa13db)" style="fill: none; stroke: #dfe5eb; stroke-opacity: 0.65; stroke-width: 0.6; stroke-linecap: round"/>
     </g>
     <g id="line2d_5">
      <defs>
       <path id="m0317f43f2b" d="M 0 0
L -4.8 0
" style="stroke: #262626"/>
      </defs>
      <g>
       <use xlink:href="#m0317f43f2b" x="52.930875" y="221.956937" style="fill: #262626; stroke: #262626"/>
      </g>
     </g>
     <g id="text_5">
      <text style="fill: #262626; font: 8.8px 'DejaVu Sans'; text-anchor: end" x="44.630875" y="225.30025" transform="rotate(-0 44.630875 225.30025)">0.105</text>
     </g>
    </g>
    <g id="ytick_2">
     <g id="line2d_6">
      <path d="M 52.930875 186.481333
L 367.81676 186.481333
" clip-path="url(#p79a7aa13db)" style="fill: none; stroke: #dfe5eb; stroke-opacity: 0.65; stroke-width: 0.6; stroke-linecap: round"/>
     </g>
     <g id="line2d_7">
      <g>
       <use xlink:href="#m0317f43f2b" x="52.930875" y="186.481333" style="fill: #262626; stroke: #262626"/>
      </g>
     </g>
     <g id="text_6">
      <text style="fill: #262626; font: 8.8px 'DejaVu Sans'; text-anchor: end" x="44.630875" y="189.824646" transform="rotate(-0 44.630875 189.824646)">0.110</text>
     </g>
    </g>
    <g id="ytick_3">
     <g id="line2d_8">
      <path d="M 52.930875 151.005729
L 367.81676 151.005729
" clip-path="url(#p79a7aa13db)" style="fill: none; stroke: #dfe5eb; stroke-opacity: 0.65; stroke-width: 0.6; stroke-linecap: round"/>
     </g>
     <g id="line2d_9">
      <g>
       <use xlink:href="#m0317f43f2b" x="52.930875" y="151.005729" style="fill: #262626; stroke: #262626"/>
      </g>
     </g>
     <g id="text_7">
      <text style="fill: #262626; font: 8.8px 'DejaVu Sans'; text-anchor: end" x="44.630875" y="154.349042" transform="rotate(-0 44.630875 154.349042)">0.115</text>
     </g>
    </g>
    <g id="ytick_4">
     <g id="line2d_10">
      <path d="M 52.930875 115.530125
L 367.81676 115.530125
" clip-path="url(#p79a7aa13db)" style="fill: none; stroke: #dfe5eb; stroke-opacity: 0.65; stroke-width: 0.6; stroke-linecap: round"/>
     </g>
     <g id="line2d_11">
      <g>
       <use xlink:href="#m0317f43f2b" x="52.930875" y="115.530125" style="fill: #262626; stroke: #262626"/>
      </g>
     </g>
     <g id="text_8">
      <text style="fill: #262626; font: 8.8px 'DejaVu Sans'; text-anchor: end" x="44.630875" y="118.873437" transform="rotate(-0 44.630875 118.873437)">0.120</text>
     </g>
    </g>
    <g id="ytick_5">
     <g id="line2d_12">
      <path d="M 52.930875 80.054521
L 367.81676 80.054521
" clip-path="url(#p79a7aa13db)" style="fill: none; stroke: #dfe5eb; stroke-opacity: 0.65; stroke-width: 0.6; stroke-linecap: round"/>
     </g>
     <g id="line2d_13">
      <g>
       <use xlink:href="#m0317f43f2b" x="52.930875" y="80.054521" style="fill: #262626; stroke: #262626"/>
      </g>
     </g>
     <g id="text_9">
      <text style="fill: #262626; font: 8.8px 'DejaVu Sans'; text-anchor: end" x="44.630875" y="83.397833" transform="rotate(-0 44.630875 83.397833)">0.125</text>
     </g>
    </g>
    <g id="ytick_6">
     <g id="line2d_14">
      <path d="M 52.930875 44.578917
L 367.81676 44.578917
" clip-path="url(#p79a7aa13db)" style="fill: none; stroke: #dfe5eb; stroke-opacity: 0.65; stroke-width: 0.6; stroke-linecap: round"/>
     </g>
     <g id="line2d_15">
      <g>
       <use xlink:href="#m0317f43f2b" x="52.930875" y="44.578917" style="fill: #262626; stroke: #262626"/>
      </g>
     </g>
     <g id="text_10">
      <text style="fill: #262626; font: 8.8px 'DejaVu Sans'; text-anchor: end" x="44.630875" y="47.922229" transform="rotate(-0 44.630875 47.922229)">0.130</text>
     </g>
    </g>
    <g id="ytick_7">
     <g id="line2d_16">
      <path d="M 52.930875 9.103313
L 367.81676 9.103313
" clip-path="url(#p79a7aa13db)" style="fill: none; stroke: #dfe5eb; stroke-opacity: 0.65; stroke-width: 0.6; stroke-linecap: round"/>
     </g>
     <g id="line2d_17">
      <g>
       <use xlink:href="#m0317f43f2b" x="52.930875" y="9.103313" style="fill: #262626; stroke: #262626"/>
      </g>
     </g>
     <g id="text_11">
      <text style="fill: #262626; font: 8.8px 'DejaVu Sans'; text-anchor: end" x="44.630875" y="12.446625" transform="rotate(-0 44.630875 12.446625)">0.135</text>
     </g>
    </g>
    <g id="text_12">
     <text style="fill: #262626; font: 10px 'DejaVu Sans'; text-anchor: middle" x="13.358438" y="128.911688" transform="rotate(-90 13.358438 128.911688)">Key D − low-impact D</text>
    </g>
   </g>
   <g id="LineCollection_1">
    <path d="M 67.24387 222.106264
L 67.24387 71.799367
" clip-path="url(#p79a7aa13db)" style="fill: none; stroke: #277da8; stroke-width: 1.2"/>
    <path d="M 210.373818 188.203916
L 210.373818 42.683371
" clip-path="url(#p79a7aa13db)" style="fill: none; stroke: #277da8; stroke-width: 1.2"/>
    <path d="M 353.503765 192.962717
L 353.503765 35.717113
" clip-path="url(#p79a7aa13db)" style="fill: none; stroke: #277da8; stroke-width: 1.2"/>
   </g>
   <g id="line2d_18">
    <defs>
     <path id="md6e614ef74" d="M 4 0
L -4 -0
" style="stroke: #277da8"/>
    </defs>
    <g clip-path="url(#p79a7aa13db)">
     <use xlink:href="#md6e614ef74" x="67.24387" y="222.106264" style="fill: #277da8; stroke: #277da8"/>
     <use xlink:href="#md6e614ef74" x="210.373818" y="188.203916" style="fill: #277da8; stroke: #277da8"/>
     <use xlink:href="#md6e614ef74" x="353.503765" y="192.962717" style="fill: #277da8; stroke: #277da8"/>
    </g>
   </g>
   <g id="line2d_19">
    <g clip-path="url(#p79a7aa13db)">
     <use xlink:href="#md6e614ef74" x="67.24387" y="71.799367" style="fill: #277da8; stroke: #277da8"/>
     <use xlink:href="#md6e614ef74" x="210.373818" y="42.683371" style="fill: #277da8; stroke: #277da8"/>
     <use xlink:href="#md6e614ef74" x="353.503765" y="35.717113" style="fill: #277da8; stroke: #277da8"/>
    </g>
   </g>
   <g id="line2d_20">
    <path d="M 67.24387 151.095377
L 210.373818 115.460978
L 353.503765 115.107917
" clip-path="url(#p79a7aa13db)" style="fill: none; stroke: #277da8; stroke-width: 1.2; stroke-linecap: round"/>
    <defs>
     <path id="m3522fd9755" d="M 0 2.4
C 0.636487 2.4 1.246992 2.147121 1.697056 1.697056
C 2.147121 1.246992 2.4 0.636487 2.4 0
C 2.4 -0.636487 2.147121 -1.246992 1.697056 -1.697056
C 1.246992 -2.147121 0.636487 -2.4 0 -2.4
C -0.636487 -2.4 -1.246992 -2.147121 -1.697056 -1.697056
C -2.147121 -1.246992 -2.4 -0.636487 -2.4 0
C -2.4 0.636487 -2.147121 1.246992 -1.697056 1.697056
C -1.246992 2.147121 -0.636487 2.4 0 2.4
z
" style="stroke: #277da8"/>
    </defs>
    <g clip-path="url(#p79a7aa13db)">
     <use xlink:href="#m3522fd9755" x="67.24387" y="151.095377" style="fill: #277da8; stroke: #277da8"/>
     <use xlink:href="#m3522fd9755" x="210.373818" y="115.460978" style="fill: #277da8; stroke: #277da8"/>
     <use xlink:href="#m3522fd9755" x="353.503765" y="115.107917" style="fill: #277da8; stroke: #277da8"/>
    </g>
   </g>
   <g id="patch_3">
    <path d="M 52.930875 250.064637
L 52.930875 7.75874
" style="fill: none; stroke: #262626; stroke-linejoin: miter; stroke-linecap: square"/>
   </g>
   <g id="patch_4">
    <path d="M 52.930875 250.064637
L 367.81676 250.064637
" style="fill: none; stroke: #262626; stroke-linejoin: miter; stroke-linecap: square"/>
   </g>
   <g id="text_13">
    <text style="fill: #6a7787; font: 8px 'DejaVu Sans'; text-anchor: start" x="59.228593" y="242.79546" transform="rotate(-0 59.228593 242.79546)">Zoomed y-axis</text>
   </g>
   <g id="legend_1">
    <g id="patch_5">
     <path d="M 327.219729 28.169052
L 361.51676 28.169052
Q 363.31676 28.169052 363.31676 26.369052
L 363.31676 14.05874
Q 363.31676 12.25874 361.51676 12.25874
L 327.219729 12.25874
Q 325.419729 12.25874 325.419729 14.05874
L 325.419729 26.369052
Q 325.419729 28.169052 327.219729 28.169052
z
" style="fill: #ffffff; opacity: 0.8; stroke: #cccccc; stroke-width: 0.8; stroke-linejoin: miter"/>
    </g>
    <g id="LineCollection_2">
     <path d="M 338.019729 24.047334
L 338.019729 15.047334
" style="fill: none; stroke: #277da8; stroke-width: 1.2"/>
    </g>
    <g id="line2d_21">
     <g>
      <use xlink:href="#md6e614ef74" x="338.019729" y="24.047334" style="fill: #277da8; stroke: #277da8"/>
     </g>
    </g>
    <g id="line2d_22">
     <g>
      <use xlink:href="#md6e614ef74" x="338.019729" y="15.047334" style="fill: #277da8; stroke: #277da8"/>
     </g>
    </g>
    <g id="line2d_23">
     <path d="M 329.019729 19.547334
L 347.019729 19.547334
" style="fill: none; stroke: #277da8; stroke-width: 1.2; stroke-linecap: round"/>
    </g>
    <g id="line2d_24">
     <g>
      <use xlink:href="#m3522fd9755" x="338.019729" y="19.547334" style="fill: #277da8; stroke: #277da8"/>
     </g>
    </g>
    <g id="text_14">
     <text style="fill: #262626; font: 9px 'DejaVu Sans'; text-anchor: start" x="354.219729" y="22.697334" transform="rotate(-0 354.219729 22.697334)">T</text>
    </g>
   </g>
  </g>
  <g id="axes_2">
   <g id="patch_6">
    <path d="M 433.673635 250.064637
L 748.55952 250.064637
L 748.55952 7.75874
L 433.673635 7.75874
z
" style="fill: #ffffff"/>
   </g>
   <g id="matplotlib.axis_3">
    <g id="xtick_4">
     <g id="line2d_25">
      <g>
       <use xlink:href="#m4f351382f9" x="447.98663" y="250.064637" style="fill: #262626; stroke: #262626"/>
      </g>
     </g>
     <g id="text_15">
      <text style="fill: #262626; font: 8.8px 'DejaVu Sans'; text-anchor: middle" x="447.98663" y="265.051262" transform="rotate(-0 447.98663 265.051262)">10</text>
     </g>
    </g>
    <g id="xtick_5">
     <g id="line2d_26">
      <g>
       <use xlink:href="#m4f351382f9" x="591.116578" y="250.064637" style="fill: #262626; stroke: #262626"/>
      </g>
     </g>
     <g id="text_16">
      <text style="fill: #262626; font: 8.8px 'DejaVu Sans'; text-anchor: middle" x="591.116578" y="265.051262" transform="rotate(-0 591.116578 265.051262)">20</text>
     </g>
    </g>
    <g id="xtick_6">
     <g id="line2d_27">
      <g>
       <use xlink:href="#m4f351382f9" x="734.246525" y="250.064637" style="fill: #262626; stroke: #262626"/>
      </g>
     </g>
     <g id="text_17">
      <text style="fill: #262626; font: 8.8px 'DejaVu Sans'; text-anchor: middle" x="734.246525" y="265.051262" transform="rotate(-0 734.246525 265.051262)">30</text>
     </g>
    </g>
    <g id="text_18">
     <text style="fill: #262626; font: 10px 'DejaVu Sans'; text-anchor: middle" x="591.116578" y="278.479824" transform="rotate(-0 591.116578 278.479824)">Nominal budget (%)</text>
    </g>
   </g>
   <g id="matplotlib.axis_4">
    <g id="ytick_8">
     <g id="line2d_28">
      <path d="M 433.673635 235.938283
L 748.55952 235.938283
" clip-path="url(#pf8e5e442c4)" style="fill: none; stroke: #dfe5eb; stroke-opacity: 0.65; stroke-width: 0.6; stroke-linecap: round"/>
     </g>
     <g id="line2d_29">
      <g>
       <use xlink:href="#m0317f43f2b" x="433.673635" y="235.938283" style="fill: #262626; stroke: #262626"/>
      </g>
     </g>
     <g id="text_19">
      <text style="fill: #262626; font: 8.8px 'DejaVu Sans'; text-anchor: end" x="425.373635" y="239.281595" transform="rotate(-0 425.373635 239.281595)">0.00275</text>
     </g>
    </g>
    <g id="ytick_9">
     <g id="line2d_30">
      <path d="M 433.673635 207.293568
L 748.55952 207.293568
" clip-path="url(#pf8e5e442c4)" style="fill: none; stroke: #dfe5eb; stroke-opacity: 0.65; stroke-width: 0.6; stroke-linecap: round"/>
     </g>
     <g id="line2d_31">
      <g>
       <use xlink:href="#m0317f43f2b" x="433.673635" y="207.293568" style="fill: #262626; stroke: #262626"/>
      </g>
     </g>
     <g id="text_20">
      <text style="fill: #262626; font: 8.8px 'DejaVu Sans'; text-anchor: end" x="425.373635" y="210.636881" transform="rotate(-0 425.373635 210.636881)">0.00300</text>
     </g>
    </g>
    <g id="ytick_10">
     <g id="line2d_32">
      <path d="M 433.673635 178.648854
L 748.55952 178.648854
" clip-path="url(#pf8e5e442c4)" style="fill: none; stroke: #dfe5eb; stroke-opacity: 0.65; stroke-width: 0.6; stroke-linecap: round"/>
     </g>
     <g id="line2d_33">
      <g>
       <use xlink:href="#m0317f43f2b" x="433.673635" y="178.648854" style="fill: #262626; stroke: #262626"/>
      </g>
     </g>
     <g id="text_21">
      <text style="fill: #262626; font: 8.8px 'DejaVu Sans'; text-anchor: end" x="425.373635" y="181.992166" transform="rotate(-0 425.373635 181.992166)">0.00325</text>
     </g>
    </g>
    <g id="ytick_11">
     <g id="line2d_34">
      <path d="M 433.673635 150.004139
L 748.55952 150.004139
" clip-path="url(#pf8e5e442c4)" style="fill: none; stroke: #dfe5eb; stroke-opacity: 0.65; stroke-width: 0.6; stroke-linecap: round"/>
     </g>
     <g id="line2d_35">
      <g>
       <use xlink:href="#m0317f43f2b" x="433.673635" y="150.004139" style="fill: #262626; stroke: #262626"/>
      </g>
     </g>
     <g id="text_22">
      <text style="fill: #262626; font: 8.8px 'DejaVu Sans'; text-anchor: end" x="425.373635" y="153.347452" transform="rotate(-0 425.373635 153.347452)">0.00350</text>
     </g>
    </g>
    <g id="ytick_12">
     <g id="line2d_36">
      <path d="M 433.673635 121.359425
L 748.55952 121.359425
" clip-path="url(#pf8e5e442c4)" style="fill: none; stroke: #dfe5eb; stroke-opacity: 0.65; stroke-width: 0.6; stroke-linecap: round"/>
     </g>
     <g id="line2d_37">
      <g>
       <use xlink:href="#m0317f43f2b" x="433.673635" y="121.359425" style="fill: #262626; stroke: #262626"/>
      </g>
     </g>
     <g id="text_23">
      <text style="fill: #262626; font: 8.8px 'DejaVu Sans'; text-anchor: end" x="425.373635" y="124.702737" transform="rotate(-0 425.373635 124.702737)">0.00375</text>
     </g>
    </g>
    <g id="ytick_13">
     <g id="line2d_38">
      <path d="M 433.673635 92.71471
L 748.55952 92.71471
" clip-path="url(#pf8e5e442c4)" style="fill: none; stroke: #dfe5eb; stroke-opacity: 0.65; stroke-width: 0.6; stroke-linecap: round"/>
     </g>
     <g id="line2d_39">
      <g>
       <use xlink:href="#m0317f43f2b" x="433.673635" y="92.71471" style="fill: #262626; stroke: #262626"/>
      </g>
     </g>
     <g id="text_24">
      <text style="fill: #262626; font: 8.8px 'DejaVu Sans'; text-anchor: end" x="425.373635" y="96.058023" transform="rotate(-0 425.373635 96.058023)">0.00400</text>
     </g>
    </g>
    <g id="ytick_14">
     <g id="line2d_40">
      <path d="M 433.673635 64.069996
L 748.55952 64.069996
" clip-path="url(#pf8e5e442c4)" style="fill: none; stroke: #dfe5eb; stroke-opacity: 0.65; stroke-width: 0.6; stroke-linecap: round"/>
     </g>
     <g id="line2d_41">
      <g>
       <use xlink:href="#m0317f43f2b" x="433.673635" y="64.069996" style="fill: #262626; stroke: #262626"/>
      </g>
     </g>
     <g id="text_25">
      <text style="fill: #262626; font: 8.8px 'DejaVu Sans'; text-anchor: end" x="425.373635" y="67.413308" transform="rotate(-0 425.373635 67.413308)">0.00425</text>
     </g>
    </g>
    <g id="ytick_15">
     <g id="line2d_42">
      <path d="M 433.673635 35.425281
L 748.55952 35.425281
" clip-path="url(#pf8e5e442c4)" style="fill: none; stroke: #dfe5eb; stroke-opacity: 0.65; stroke-width: 0.6; stroke-linecap: round"/>
     </g>
     <g id="line2d_43">
      <g>
       <use xlink:href="#m0317f43f2b" x="433.673635" y="35.425281" style="fill: #262626; stroke: #262626"/>
      </g>
     </g>
     <g id="text_26">
      <text style="fill: #262626; font: 8.8px 'DejaVu Sans'; text-anchor: end" x="425.373635" y="38.768594" transform="rotate(-0 425.373635 38.768594)">0.00450</text>
     </g>
    </g>
    <g id="text_27">
     <text style="fill: #262626; font: 10px 'DejaVu Sans'; text-anchor: middle" x="382.903198" y="128.911688" transform="rotate(-90 382.903198 128.911688)">Key D − low-impact D</text>
    </g>
   </g>
   <g id="LineCollection_3">
    <path d="M 447.98663 188.384087
L 447.98663 139.33249
" clip-path="url(#pf8e5e442c4)" style="fill: none; stroke: #f08a62; stroke-width: 1.2"/>
    <path d="M 591.116578 159.540235
L 591.116578 89.906066
" clip-path="url(#pf8e5e442c4)" style="fill: none; stroke: #f08a62; stroke-width: 1.2"/>
    <path d="M 734.246525 219.745557
L 734.246525 150.714622
" clip-path="url(#pf8e5e442c4)" style="fill: none; stroke: #f08a62; stroke-width: 1.2"/>
   </g>
   <g id="line2d_44">
    <defs>
     <path id="me340ff7408" d="M 4 0
L -4 -0
" style="stroke: #f08a62"/>
    </defs>
    <g clip-path="url(#pf8e5e442c4)">
     <use xlink:href="#me340ff7408" x="447.98663" y="188.384087" style="fill: #f08a62; stroke: #f08a62"/>
     <use xlink:href="#me340ff7408" x="591.116578" y="159.540235" style="fill: #f08a62; stroke: #f08a62"/>
     <use xlink:href="#me340ff7408" x="734.246525" y="219.745557" style="fill: #f08a62; stroke: #f08a62"/>
    </g>
   </g>
   <g id="line2d_45">
    <g clip-path="url(#pf8e5e442c4)">
     <use xlink:href="#me340ff7408" x="447.98663" y="139.33249" style="fill: #f08a62; stroke: #f08a62"/>
     <use xlink:href="#me340ff7408" x="591.116578" y="89.906066" style="fill: #f08a62; stroke: #f08a62"/>
     <use xlink:href="#me340ff7408" x="734.246525" y="150.714622" style="fill: #f08a62; stroke: #f08a62"/>
    </g>
   </g>
   <g id="LineCollection_4">
    <path d="M 447.98663 222.106264
L 447.98663 152.36603
" clip-path="url(#pf8e5e442c4)" style="fill: none; stroke: #45a990; stroke-width: 1.2"/>
    <path d="M 591.116578 138.643545
L 591.116578 35.717113
" clip-path="url(#pf8e5e442c4)" style="fill: none; stroke: #45a990; stroke-width: 1.2"/>
    <path d="M 734.246525 186.144918
L 734.246525 90.599016
" clip-path="url(#pf8e5e442c4)" style="fill: none; stroke: #45a990; stroke-width: 1.2"/>
   </g>
   <g id="line2d_46">
    <defs>
     <path id="m1f31ab66d7" d="M 4 0
L -4 -0
" style="stroke: #45a990"/>
    </defs>
    <g clip-path="url(#pf8e5e442c4)">
     <use xlink:href="#m1f31ab66d7" x="447.98663" y="222.106264" style="fill: #45a990; stroke: #45a990"/>
     <use xlink:href="#m1f31ab66d7" x="591.116578" y="138.643545" style="fill: #45a990; stroke: #45a990"/>
     <use xlink:href="#m1f31ab66d7" x="734.246525" y="186.144918" style="fill: #45a990; stroke: #45a990"/>
    </g>
   </g>
   <g id="line2d_47">
    <g clip-path="url(#pf8e5e442c4)">
     <use xlink:href="#m1f31ab66d7" x="447.98663" y="152.36603" style="fill: #45a990; stroke: #45a990"/>
     <use xlink:href="#m1f31ab66d7" x="591.116578" y="35.717113" style="fill: #45a990; stroke: #45a990"/>
     <use xlink:href="#m1f31ab66d7" x="734.246525" y="90.599016" style="fill: #45a990; stroke: #45a990"/>
    </g>
   </g>
   <g id="line2d_48">
    <path d="M 447.98663 164.990554
L 591.116578 126.488769
L 734.246525 184.932217
" clip-path="url(#pf8e5e442c4)" style="fill: none; stroke: #f08a62; stroke-width: 1.2; stroke-linecap: round"/>
    <defs>
     <path id="m8197e5c378" d="M 0 2.4
C 0.636487 2.4 1.246992 2.147121 1.697056 1.697056
C 2.147121 1.246992 2.4 0.636487 2.4 0
C 2.4 -0.636487 2.147121 -1.246992 1.697056 -1.697056
C 1.246992 -2.147121 0.636487 -2.4 0 -2.4
C -0.636487 -2.4 -1.246992 -2.147121 -1.697056 -1.697056
C -2.147121 -1.246992 -2.4 -0.636487 -2.4 0
C -2.4 0.636487 -2.147121 1.246992 -1.697056 1.697056
C -1.246992 2.147121 -0.636487 2.4 0 2.4
z
" style="stroke: #f08a62"/>
    </defs>
    <g clip-path="url(#pf8e5e442c4)">
     <use xlink:href="#m8197e5c378" x="447.98663" y="164.990554" style="fill: #f08a62; stroke: #f08a62"/>
     <use xlink:href="#m8197e5c378" x="591.116578" y="126.488769" style="fill: #f08a62; stroke: #f08a62"/>
     <use xlink:href="#m8197e5c378" x="734.246525" y="184.932217" style="fill: #f08a62; stroke: #f08a62"/>
    </g>
   </g>
   <g id="line2d_49">
    <path d="M 447.98663 191.11011
L 591.116578 87.006234
L 734.246525 137.614596
" clip-path="url(#pf8e5e442c4)" style="fill: none; stroke: #45a990; stroke-width: 1.2; stroke-linecap: round"/>
    <defs>
     <path id="m6e851cabad" d="M 0 2.4
C 0.636487 2.4 1.246992 2.147121 1.697056 1.697056
C 2.147121 1.246992 2.4 0.636487 2.4 0
C 2.4 -0.636487 2.147121 -1.246992 1.697056 -1.697056
C 1.246992 -2.147121 0.636487 -2.4 0 -2.4
C -0.636487 -2.4 -1.246992 -2.147121 -1.697056 -1.697056
C -2.147121 -1.246992 -2.4 -0.636487 -2.4 0
C -2.4 0.636487 -2.147121 1.246992 -1.697056 1.697056
C -1.246992 2.147121 -0.636487 2.4 0 2.4
z
" style="stroke: #45a990"/>
    </defs>
    <g clip-path="url(#pf8e5e442c4)">
     <use xlink:href="#m6e851cabad" x="447.98663" y="191.11011" style="fill: #45a990; stroke: #45a990"/>
     <use xlink:href="#m6e851cabad" x="591.116578" y="87.006234" style="fill: #45a990; stroke: #45a990"/>
     <use xlink:href="#m6e851cabad" x="734.246525" y="137.614596" style="fill: #45a990; stroke: #45a990"/>
    </g>
   </g>
   <g id="patch_7">
    <path d="M 433.673635 250.064637
L 433.673635 7.75874
" style="fill: none; stroke: #262626; stroke-linejoin: miter; stroke-linecap: square"/>
   </g>
   <g id="patch_8">
    <path d="M 433.673635 250.064637
L 748.55952 250.064637
" style="fill: none; stroke: #262626; stroke-linejoin: miter; stroke-linecap: square"/>
   </g>
   <g id="text_28">
    <text style="fill: #6a7787; font: 8px 'DejaVu Sans'; text-anchor: start" x="439.971353" y="242.79546" transform="rotate(-0 439.971353 242.79546)">Zoomed y-axis</text>
   </g>
   <g id="legend_2">
    <g id="patch_9">
     <path d="M 707.302958 41.379365
L 742.25952 41.379365
Q 744.05952 41.379365 744.05952 39.579365
L 744.05952 14.05874
Q 744.05952 12.25874 742.25952 12.25874
L 707.302958 12.25874
Q 705.502958 12.25874 705.502958 14.05874
L 705.502958 39.579365
Q 705.502958 41.379365 707.302958 41.379365
z
" style="fill: #ffffff; opacity: 0.8; stroke: #cccccc; stroke-width: 0.8; stroke-linejoin: miter"/>
    </g>
    <g id="LineCollection_5">
     <path d="M 718.102958 24.047334
L 718.102958 15.047334
" style="fill: none; stroke: #f08a62; stroke-width: 1.2"/>
    </g>
    <g id="line2d_50">
     <g>
      <use xlink:href="#me340ff7408" x="718.102958" y="24.047334" style="fill: #f08a62; stroke: #f08a62"/>
     </g>
    </g>
    <g id="line2d_51">
     <g>
      <use xlink:href="#me340ff7408" x="718.102958" y="15.047334" style="fill: #f08a62; stroke: #f08a62"/>
     </g>
    </g>
    <g id="line2d_52">
     <path d="M 709.102958 19.547334
L 727.102958 19.547334
" style="fill: none; stroke: #f08a62; stroke-width: 1.2; stroke-linecap: round"/>
    </g>
    <g id="line2d_53">
     <g>
      <use xlink:href="#m8197e5c378" x="718.102958" y="19.547334" style="fill: #f08a62; stroke: #f08a62"/>
     </g>
    </g>
    <g id="text_29">
     <text style="fill: #262626; font: 9px 'DejaVu Sans'; text-anchor: start" x="734.302958" y="22.697334" transform="rotate(-0 734.302958 22.697334)">A</text>
    </g>
    <g id="LineCollection_6">
     <path d="M 718.102958 37.257646
L 718.102958 28.257646
" style="fill: none; stroke: #45a990; stroke-width: 1.2"/>
    </g>
    <g id="line2d_54">
     <g>
      <use xlink:href="#m1f31ab66d7" x="718.102958" y="37.257646" style="fill: #45a990; stroke: #45a990"/>
     </g>
    </g>
    <g id="line2d_55">
     <g>
      <use xlink:href="#m1f31ab66d7" x="718.102958" y="28.257646" style="fill: #45a990; stroke: #45a990"/>
     </g>
    </g>
    <g id="line2d_56">
     <path d="M 709.102958 32.757646
L 727.102958 32.757646
" style="fill: none; stroke: #45a990; stroke-width: 1.2; stroke-linecap: round"/>
    </g>
    <g id="line2d_57">
     <g>
      <use xlink:href="#m6e851cabad" x="718.102958" y="32.757646" style="fill: #45a990; stroke: #45a990"/>
     </g>
    </g>
    <g id="text_30">
     <text style="fill: #262626; font: 9px 'DejaVu Sans'; text-anchor: start" x="734.302958" y="35.907646" transform="rotate(-0 734.302958 35.907646)">V</text>
    </g>
   </g>
  </g>
 </g>
 <defs>
  <clipPath id="p79a7aa13db">
   <rect x="52.930875" y="7.75874" width="314.885885" height="242.305897"/>
  </clipPath>
  <clipPath id="pf8e5e442c4">
   <rect x="433.673635" y="7.75874" width="314.885885" height="242.305897"/>
  </clipPath>
 </defs>
</svg>
